<svg width="772" height="669" viewBox="0 0 772 669" fill="none" xmlns="http://www.w3.org/2000/svg">
<path fill-rule="evenodd" clip-rule="evenodd" d="M391.841 4.1459C390.045 -1.38197 382.224 -1.38197 380.428 4.1459L369.633 37.3708C368.829 39.843 366.526 41.5167 363.926 41.5167H328.992C323.179 41.5167 320.763 48.9544 325.465 52.3708L353.728 72.905C355.831 74.4329 356.71 77.1411 355.907 79.6132L345.112 112.838C343.316 118.366 349.643 122.963 354.345 119.546L382.608 99.0122C384.711 97.4843 387.558 97.4843 389.661 99.0122L417.924 119.546C422.626 122.963 428.953 118.366 427.157 112.838L416.362 79.6132C415.558 77.1411 416.438 74.4329 418.541 72.905L446.804 52.3708C451.506 48.9544 449.09 41.5167 443.277 41.5167H408.343C405.743 41.5167 403.439 39.843 402.636 37.3708L391.841 4.1459ZM198.483 51.6467C195.317 46.772 187.763 48.7961 187.459 54.6005L185.631 89.4874C185.495 92.0832 183.703 94.2962 181.192 94.9689L147.447 104.011C141.833 105.515 141.424 113.325 146.85 115.408L179.465 127.927C181.891 128.859 183.442 131.247 183.306 133.843L181.478 168.73C181.174 174.534 188.475 177.337 192.132 172.82L214.118 145.67C215.753 143.65 218.504 142.913 220.931 143.845L253.545 156.364C258.971 158.447 263.893 152.369 260.727 147.495L241.701 118.196C240.285 116.016 240.434 113.172 242.07 111.152L264.055 84.0029C267.713 79.4858 263.453 72.927 257.839 74.4314L224.095 83.4732C221.584 84.1459 218.925 83.1254 217.51 80.9454L198.483 51.6467ZM467.053 211.124C478.446 202.718 491.398 197.584 505.134 197.584C550.698 197.584 587.634 254.072 587.634 299.084C587.634 343.93 550.968 380.316 505.634 380.582V434.584C505.634 443.972 498.023 451.584 488.634 451.584H284.634C275.246 451.584 267.634 443.972 267.634 434.584V380.582C267.526 380.583 267.418 380.583 267.309 380.583L267.134 380.584C221.571 380.584 184.634 344.095 184.634 299.084C184.634 254.072 221.571 197.584 267.134 197.584C280.871 197.584 293.823 202.718 305.216 211.124C312.726 173.754 346.1 145.584 386.134 145.584C426.169 145.584 459.543 173.754 467.053 211.124ZM573.52 51.6467C576.686 46.772 584.24 48.7961 584.544 54.6005L586.373 89.4874C586.509 92.0832 588.301 94.2962 590.811 94.9689L624.556 104.011C630.17 105.515 630.579 113.325 625.153 115.408L592.539 127.927C590.112 128.859 588.561 131.247 588.697 133.843L590.526 168.73C590.83 174.534 583.529 177.337 579.871 172.82L557.886 145.67C556.25 143.65 553.499 142.913 551.073 143.845L518.458 156.364C513.032 158.447 508.11 152.369 511.276 147.495L530.303 118.196C531.719 116.016 531.57 113.172 529.934 111.152L507.949 84.0029C504.291 79.4858 508.55 72.927 514.164 74.4314L547.909 83.4732C550.419 84.1459 553.078 83.1254 554.494 80.9454L573.52 51.6467Z" fill="url(#paint0_linear_67_1711)"/>
<path d="M85.8 496.552V524.008H42.432V539.296H73.632V565.348H42.432V607H7.8V496.552H85.8ZM115.002 511.996C108.97 511.996 104.134 510.384 100.494 507.16C96.8545 503.936 95.0345 499.88 95.0345 494.992C95.0345 490 96.8545 485.892 100.494 482.668C104.134 479.34 108.97 477.676 115.002 477.676C120.93 477.676 125.714 479.34 129.354 482.668C132.994 485.892 134.814 490 134.814 494.992C134.814 499.88 132.994 503.936 129.354 507.16C125.714 510.384 120.93 511.996 115.002 511.996ZM132.162 519.016V607H97.5305V519.016H132.162ZM143.124 563.008C143.124 553.752 144.684 545.744 147.804 538.984C151.028 532.12 155.396 526.92 160.908 523.384C166.42 519.744 172.608 517.924 179.472 517.924C185.192 517.924 190.08 519.12 194.136 521.512C198.296 523.8 201.468 526.972 203.652 531.028V491.56H238.284V607H203.652V594.988C201.468 599.044 198.296 602.268 194.136 604.66C190.08 606.948 185.192 608.092 179.472 608.092C172.608 608.092 166.42 606.324 160.908 602.788C155.396 599.148 151.028 593.948 147.804 587.188C144.684 580.324 143.124 572.264 143.124 563.008ZM203.808 563.008C203.808 558.328 202.612 554.688 200.22 552.088C197.828 549.488 194.76 548.188 191.016 548.188C187.272 548.188 184.204 549.488 181.812 552.088C179.42 554.688 178.224 558.328 178.224 563.008C178.224 567.688 179.42 571.328 181.812 573.928C184.204 576.528 187.272 577.828 191.016 577.828C194.76 577.828 197.828 576.528 200.22 573.928C202.612 571.328 203.808 567.688 203.808 563.008ZM295.643 608.092C286.803 608.092 278.847 606.272 271.775 602.632C264.703 598.992 259.139 593.792 255.083 587.032C251.131 580.168 249.155 572.16 249.155 563.008C249.155 553.856 251.131 545.9 255.083 539.14C259.139 532.276 264.703 527.024 271.775 523.384C278.847 519.744 286.803 517.924 295.643 517.924C304.483 517.924 312.439 519.744 319.511 523.384C326.583 527.024 332.095 532.276 336.047 539.14C340.103 545.9 342.131 553.856 342.131 563.008C342.131 572.16 340.103 580.168 336.047 587.032C332.095 593.792 326.583 598.992 319.511 602.632C312.439 606.272 304.483 608.092 295.643 608.092ZM295.643 578.14C298.867 578.14 301.571 576.892 303.755 574.396C305.939 571.796 307.031 568 307.031 563.008C307.031 558.016 305.939 554.272 303.755 551.776C301.571 549.176 298.867 547.876 295.643 547.876C292.419 547.876 289.715 549.176 287.531 551.776C285.347 554.272 284.255 558.016 284.255 563.008C284.255 568 285.295 571.796 287.375 574.396C289.559 576.892 292.315 578.14 295.643 578.14ZM387.643 535.24C391.179 530.144 395.495 526.088 400.591 523.072C405.687 519.952 410.991 518.392 416.503 518.392V555.364H406.675C400.123 555.364 395.287 556.508 392.167 558.796C389.151 561.084 387.643 565.14 387.643 570.964V607H353.011V519.016H387.643V535.24ZM511.007 562.228C511.007 564.62 510.851 566.908 510.539 569.092H454.847C455.367 576.684 458.539 580.48 464.363 580.48C468.107 580.48 470.811 578.764 472.475 575.332H509.135C507.887 581.572 505.235 587.188 501.179 592.18C497.227 597.068 492.183 600.968 486.047 603.88C480.015 606.688 473.359 608.092 466.079 608.092C457.343 608.092 449.543 606.272 442.679 602.632C435.919 598.992 430.615 593.792 426.767 587.032C423.023 580.168 421.151 572.16 421.151 563.008C421.151 553.856 423.023 545.9 426.767 539.14C430.615 532.276 435.919 527.024 442.679 523.384C449.543 519.744 457.343 517.924 466.079 517.924C474.815 517.924 482.563 519.744 489.323 523.384C496.187 526.92 501.491 532.016 505.235 538.672C509.083 545.328 511.007 553.18 511.007 562.228ZM475.907 553.96C475.907 551.048 474.971 548.864 473.099 547.408C471.227 545.848 468.887 545.068 466.079 545.068C459.943 545.068 456.355 548.032 455.315 553.96H475.907ZM561.116 608.092C552.796 608.092 545.412 606.74 538.964 604.036C532.62 601.332 527.576 597.588 523.832 592.804C520.088 588.02 517.956 582.612 517.436 576.58H550.664C551.08 579.18 552.172 581.104 553.94 582.352C555.812 583.6 558.152 584.224 560.96 584.224C562.728 584.224 564.132 583.86 565.172 583.132C566.212 582.3 566.732 581.312 566.732 580.168C566.732 578.192 565.64 576.788 563.456 575.956C561.272 575.124 557.58 574.188 552.38 573.148C546.036 571.9 540.784 570.548 536.624 569.092C532.568 567.636 528.98 565.14 525.86 561.604C522.844 558.068 521.336 553.18 521.336 546.94C521.336 541.532 522.74 536.644 525.548 532.276C528.46 527.804 532.724 524.32 538.34 521.824C543.956 519.224 550.768 517.924 558.776 517.924C570.632 517.924 579.888 520.836 586.544 526.66C593.304 532.484 597.36 540.076 598.712 549.436H567.98C567.46 547.044 566.368 545.224 564.704 543.976C563.04 542.624 560.804 541.948 557.996 541.948C556.228 541.948 554.876 542.312 553.94 543.04C553.004 543.664 552.536 544.652 552.536 546.004C552.536 547.772 553.628 549.124 555.812 550.06C557.996 550.892 561.48 551.776 566.264 552.712C572.608 553.96 577.964 555.364 582.332 556.924C586.7 558.484 590.496 561.188 593.72 565.036C596.944 568.78 598.556 573.98 598.556 580.636C598.556 585.836 597.048 590.516 594.032 594.676C591.016 598.836 586.648 602.112 580.928 604.504C575.312 606.896 568.708 608.092 561.116 608.092ZM667.056 577.516V607H653.952C629.824 607 617.76 594.988 617.76 570.964V547.876H606.84V519.016H617.76V497.8H652.392V519.016H666.744V547.876H652.392V571.588C652.392 573.668 652.86 575.176 653.796 576.112C654.836 577.048 656.5 577.516 658.788 577.516H667.056ZM722.053 608.092C713.213 608.092 705.257 606.272 698.185 602.632C691.113 598.992 685.549 593.792 681.493 587.032C677.541 580.168 675.565 572.16 675.565 563.008C675.565 553.856 677.541 545.9 681.493 539.14C685.549 532.276 691.113 527.024 698.185 523.384C705.257 519.744 713.213 517.924 722.053 517.924C730.893 517.924 738.849 519.744 745.921 523.384C752.993 527.024 758.505 532.276 762.457 539.14C766.513 545.9 768.541 553.856 768.541 563.008C768.541 572.16 766.513 580.168 762.457 587.032C758.505 593.792 752.993 598.992 745.921 602.632C738.849 606.272 730.893 608.092 722.053 608.092ZM722.053 578.14C725.277 578.14 727.981 576.892 730.165 574.396C732.349 571.796 733.441 568 733.441 563.008C733.441 558.016 732.349 554.272 730.165 551.776C727.981 549.176 725.277 547.876 722.053 547.876C718.829 547.876 716.125 549.176 713.941 551.776C711.757 554.272 710.665 558.016 710.665 563.008C710.665 568 711.705 571.796 713.785 574.396C715.969 576.892 718.725 578.14 722.053 578.14Z" fill="white"/>
<defs>
<linearGradient id="paint0_linear_67_1711" x1="167.634" y1="303.084" x2="628.634" y2="303.084" gradientUnits="userSpaceOnUse">
<stop stop-color="white"/>
<stop offset="1" stop-color="#E2E2E2"/>
</linearGradient>
</defs>
</svg>
